<svg width="168" height="50" viewBox="0 0 168 50" fill="none" xmlns="http://www.w3.org/2000/svg">
<g clip-path="url(#clip0_78_511)">
<path d="M163.8 0H4.2C1.8804 0 0 1.86548 0 4.16667V45.8333C0 48.1345 1.8804 50 4.2 50H163.8C166.12 50 168 48.1345 168 45.8333V4.16667C168 1.86548 166.12 0 163.8 0Z" fill="#151515"/>
<path d="M34.944 20.2931L16.2862 10.0708C15.757 9.78334 15.2698 9.71389 14.875 9.83889L30.156 25.0611L34.944 20.2903" fill="url(#paint0_linear_78_511)"/>
<path fill-rule="evenodd" clip-rule="evenodd" d="M34.9681 29.8584L41.3381 26.3695C42.6288 25.6584 42.6288 24.5028 41.3381 23.7945L34.9443 20.2945L30.1562 25.0639L34.9681 29.8584Z" fill="url(#paint1_linear_78_511)"/>
<path d="M14.875 9.8389C14.3052 10.0139 13.937 10.5889 13.937 11.45L13.9426 38.7083C13.9426 39.5639 14.2982 40.1278 14.8498 40.3167L30.156 25.0639L14.875 9.8389Z" fill="url(#paint2_linear_78_511)"/>
<path d="M14.8499 40.3195C15.2475 40.4528 15.7459 40.3889 16.2863 40.0945L34.9651 29.8583L30.1561 25.0667L14.8499 40.3195Z" fill="url(#paint3_linear_78_511)"/>
<path fill-rule="evenodd" clip-rule="evenodd" d="M57.361 8.44028C58.537 8.44028 59.3518 8.96528 59.881 9.50278L59.055 10.4236C58.6294 10.0139 58.1632 9.73194 57.375 9.73194C55.8742 9.73194 54.8662 10.8847 54.8662 12.7653C54.8662 14.6736 55.7706 15.8264 57.4646 15.8264C57.9308 15.8264 58.3956 15.6986 58.6686 15.4542V13.6486H57.0754V12.4347H60.0112V16.1208C59.4302 16.6583 58.4348 17.1181 57.284 17.1181C55.0328 17.1181 53.3262 15.5833 53.3262 12.8056C53.3262 10.0653 55.0846 8.44028 57.3582 8.44028M65.5734 13.2639C65.5734 12.2667 65.1492 11.6667 64.2826 11.6667C63.5322 11.6667 62.8854 12.2153 62.7566 13.2639H65.5734ZM64.2434 10.5278C65.9626 10.5278 66.8684 11.7542 66.8684 13.5069C66.8684 13.7903 66.8404 14.0444 66.804 14.1986H62.7692C62.8952 15.3375 63.6232 15.9792 64.6452 15.9792C65.1856 15.9792 65.6504 15.8125 66.1152 15.5181L66.6192 16.4389C66.013 16.8347 65.2514 17.1167 64.4492 17.1167C62.6894 17.1167 61.3202 15.9014 61.3202 13.8278C61.3216 11.7778 62.7566 10.5278 64.2434 10.5278ZM68.3174 11.8444H67.4144V10.7444L68.3972 10.6806L68.5792 8.96389H69.8196V10.6806H71.4352V11.8444H69.8196V14.8389C69.8196 15.5806 70.1024 15.9389 70.7114 15.9389C70.9312 15.9389 71.1902 15.875 71.3694 15.8L71.6298 16.8861C71.2798 17.0014 70.8402 17.1167 70.3362 17.1167C68.862 17.1167 68.3202 16.1944 68.3202 14.8389V11.8444H68.3174Z" fill="#E7E7E7"/>
<mask id="mask0_78_511" style="mask-type:luminance" maskUnits="userSpaceOnUse" x="51" y="7" width="106" height="39">
<path d="M51.5034 7.90277H156.422V45.125H51.5034V7.90277Z" fill="#E7E7E7"/>
</mask>
<g mask="url(#mask0_78_511)">
<path fill-rule="evenodd" clip-rule="evenodd" d="M75.4208 10.6805H76.9076V16.9639H75.4208V10.6805ZM75.2528 8.74722C75.2528 8.24722 75.6406 7.90277 76.1698 7.90277C76.7018 7.90277 77.0868 8.24999 77.0868 8.74722C77.0868 9.23333 76.7004 9.58055 76.1684 9.58055C75.6364 9.58055 75.25 9.23333 75.25 8.74722H75.2528ZM79.03 11.8444H78.1242V10.7444L79.1084 10.6805L79.2904 8.96388H80.5308V10.6805H82.1464V11.8444H80.5308V14.8389C80.5308 15.5805 80.8136 15.9389 81.4226 15.9389C81.6438 15.9389 81.9014 15.875 82.0834 15.8L82.3424 16.8861C81.9924 17.0014 81.5528 17.1167 81.0488 17.1167C79.5746 17.1167 79.0328 16.1944 79.0328 14.8389V11.8444H79.03ZM88.7292 15.9139C89.6616 15.9139 90.23 15.0805 90.23 13.8278C90.23 12.5611 89.6616 11.7305 88.7292 11.7305C87.7982 11.7305 87.2452 12.5611 87.2452 13.8278C87.2452 15.0819 87.7982 15.9139 88.7292 15.9139ZM88.7292 10.525C90.3196 10.525 91.756 11.7292 91.756 13.8278C91.756 15.9139 90.3196 17.1194 88.7292 17.1194C87.1514 17.1194 85.7192 15.9139 85.7192 13.8278C85.7192 11.7305 87.1514 10.5264 88.7292 10.5264M93.233 10.6805H94.4608L94.5644 11.525H94.6148C95.1846 10.975 95.8328 10.525 96.698 10.525C98.056 10.525 98.6496 11.4347 98.6496 13.0222V16.9639H97.1628V13.2139C97.1628 12.1764 96.8688 11.7944 96.1688 11.7944C95.6116 11.7944 95.2504 12.0611 94.7184 12.5722V16.9639H93.2344V10.6805H93.233Z" fill="#E7E7E7"/>
</g>
<mask id="mask1_78_511" style="mask-type:luminance" maskUnits="userSpaceOnUse" x="51" y="7" width="106" height="39">
<path d="M51.5034 7.90277H156.422V45.125H51.5034V7.90277Z" fill="white"/>
</mask>
<g mask="url(#mask1_78_511)">
<path fill-rule="evenodd" clip-rule="evenodd" d="M127.498 29.7528C126.443 29.7528 125.678 30.0445 125.206 30.6236C124.735 31.2014 124.492 32.1236 124.478 33.3875V33.7347C124.478 35.1708 124.721 36.1986 125.206 36.8208C125.689 37.4403 126.466 37.7514 127.537 37.7514C128.431 37.7514 129.133 37.3903 129.637 36.675C130.146 35.9611 130.398 34.9722 130.398 33.7139C130.398 32.4389 130.146 31.4583 129.636 30.7764C129.132 30.0931 128.418 29.7514 127.497 29.7514M127.725 39.0472C127.05 39.0472 126.437 38.925 125.88 38.6792C125.32 38.431 124.837 38.0393 124.48 37.5444H124.364C124.441 38.1417 124.478 38.7083 124.478 39.2431V43.4569H122.913V28.625H124.187L124.403 30.025H124.478C124.882 29.4639 125.349 29.0625 125.887 28.8111C126.464 28.5543 127.092 28.4272 127.725 28.4389C129.097 28.4389 130.155 28.9014 130.903 29.8278C131.645 30.7556 132.017 32.0597 132.017 33.7347C132.017 35.4153 131.639 36.7208 130.883 37.6514C130.123 38.5819 129.072 39.0472 127.725 39.0472ZM135.646 38.8611H134.078V24.3278H135.646V38.8611ZM141.115 37.7695C142.09 37.7695 142.858 37.5056 143.411 36.9778C143.968 36.4458 144.246 35.7042 144.246 34.7514V33.8306L142.678 33.8944C141.432 33.9389 140.536 34.1306 139.988 34.4695C139.436 34.8083 139.162 35.3389 139.162 36.0528C139.162 36.6125 139.33 37.0389 139.675 37.3306C140.018 37.625 140.497 37.7695 141.115 37.7695ZM144.651 38.8625L144.343 37.407H144.266C143.748 38.05 143.234 38.4833 142.72 38.7083C142.209 38.9347 141.568 39.0486 140.802 39.0486C139.776 39.0486 138.973 38.7875 138.39 38.2653C137.808 37.7431 137.517 37.0014 137.517 36.0333C137.517 33.9667 139.185 32.8806 142.529 32.7833L144.283 32.7278V32.0889C144.283 31.2889 144.108 30.6944 143.758 30.3111C143.408 29.9292 142.848 29.7375 142.082 29.7375C141.221 29.7375 140.248 30.0014 139.16 30.5222L138.677 29.3347C139.187 29.0625 139.745 28.8486 140.352 28.6903C140.949 28.5366 141.563 28.4586 142.18 28.4583C143.412 28.4583 144.325 28.7278 144.92 29.2708C145.513 29.8125 145.812 30.6792 145.812 31.875V38.8611H144.65L144.651 38.8625ZM146.723 28.625H148.403L150.668 34.4639C151.162 35.7972 151.473 36.7583 151.592 37.35H151.666C151.75 37.0306 151.918 36.4889 152.184 35.7181C152.443 34.95 153.296 32.5833 154.742 28.6236H156.422L151.98 40.2806C151.538 41.4333 151.024 42.25 150.434 42.7333C149.846 43.2167 149.124 43.4556 148.27 43.4556C147.791 43.4556 147.318 43.4 146.853 43.2958V42.0528C147.199 42.1306 147.587 42.1667 148.015 42.1667C149.089 42.1667 149.856 41.5667 150.315 40.375L150.895 38.9167L146.723 28.6208V28.625ZM97.7986 35.0139C98.297 34.5194 98.3404 33.8389 98.3404 33.4514C98.3404 31.9097 97.4094 29.5111 95.6146 29.5111C95.0518 29.5111 94.4456 29.7917 94.0998 30.2194C93.7316 30.6681 93.6238 31.2472 93.6238 31.8028C93.6238 33.2375 94.4694 35.6167 96.3286 35.6167C96.8769 35.6035 97.4008 35.3887 97.7986 35.0139ZM97.1728 39.0833C97.0006 39.0611 96.8928 39.0611 96.6772 39.0611C96.4812 39.0611 95.3122 39.1028 94.405 39.4083C93.929 39.575 92.543 40.0917 92.543 41.6097C92.543 43.1278 94.0382 44.2208 96.351 44.2208C98.4286 44.2208 99.5318 43.2375 99.5318 41.9097C99.5318 40.8153 98.8178 40.2389 97.1742 39.0833H97.1728ZM98.7086 29.5764C99.2084 29.982 100.244 30.8403 100.244 32.4653C100.244 34.0514 99.3344 34.8014 98.4286 35.507C98.1486 35.782 97.821 36.0875 97.821 36.5583C97.821 37.0278 98.1472 37.2847 98.3852 37.4778L99.165 38.075C100.117 38.8708 100.981 39.5972 100.981 41.075C100.981 43.0889 99.0096 45.1236 95.2912 45.1236C92.1552 45.1236 90.6432 43.6431 90.6432 42.0597C90.6432 41.2875 91.0282 40.1986 92.3092 39.4458C93.6476 38.6319 95.4662 38.5264 96.4392 38.4597C96.134 38.0764 95.7896 37.6681 95.7896 37.0083C95.7896 36.6403 95.8974 36.425 96.0052 36.1681C95.7672 36.1903 95.5292 36.2097 95.3122 36.2097C93.0218 36.2097 91.724 34.5181 91.724 32.8486C91.724 31.8653 92.1776 30.7722 93.1072 29.9806C94.3392 28.975 95.8092 28.8028 96.981 28.8028H101.437L100.051 29.5736H98.71L98.7086 29.5764ZM87.7886 37.0097C88.3066 36.3264 88.4368 35.4681 88.4368 34.6347C88.4368 32.7542 87.5338 29.1625 84.8528 29.1625C84.1416 29.1625 83.429 29.4403 82.911 29.8903C82.071 30.6403 81.917 31.5806 81.917 32.5014C81.917 34.6167 82.9754 38.1014 85.5892 38.1014C86.4292 38.1014 87.2972 37.6945 87.79 37.0111M85.0922 38.7445C81.6594 38.7445 79.824 36.0917 79.824 33.6958C79.824 30.8972 82.134 28.5014 85.417 28.5014C88.5908 28.5014 90.5788 30.9597 90.5788 33.5486C90.5788 36.0708 88.6132 38.7431 85.0908 38.7431M76.0846 37.0097C76.6026 36.3264 76.7314 35.4681 76.7314 34.6347C76.7314 32.7542 75.8242 29.1625 73.1474 29.1625C72.4334 29.1625 71.7194 29.4403 71.2042 29.8903C70.3586 30.6403 70.2102 31.5806 70.2102 32.5014C70.2102 34.6167 71.2672 38.1014 73.881 38.1014C74.7238 38.1014 75.5862 37.6945 76.0846 37.0111M73.3854 38.7445C69.9498 38.7445 68.113 36.0917 68.113 33.6958C68.113 30.8972 70.4258 28.5014 73.7088 28.5014C76.884 28.5014 78.8706 30.9597 78.8706 33.5486C78.8706 36.0708 76.9064 38.7431 73.3868 38.7431M66.4624 38.4069L63.36 39.1153C62.0958 39.3097 60.966 39.4792 59.776 39.4792C53.784 39.4792 51.502 35.1181 51.502 31.7014C51.502 27.5306 54.736 23.6625 60.2744 23.6625C61.3966 23.6645 62.5135 23.8158 63.5952 24.1125C65.2248 24.5653 65.985 25.1236 66.461 25.4458L64.6592 27.1431L63.9004 27.3153L64.4436 26.4542C63.7044 25.7458 62.3576 24.4347 59.7956 24.4347C56.3656 24.4347 53.7826 27.0181 53.7826 30.7778C53.7826 34.8167 56.7324 38.6222 61.4658 38.6222C62.8574 38.6222 63.5728 38.3403 64.2238 38.0833V34.625L60.9478 34.7958L62.6838 33.8681H67.287L66.7214 34.4097C66.5674 34.5375 66.5464 34.5792 66.5044 34.7528C66.482 34.9444 66.4596 35.5694 66.4596 35.7806V38.4056L66.4624 38.4069Z" fill="white"/>
</g>
<mask id="mask2_78_511" style="mask-type:luminance" maskUnits="userSpaceOnUse" x="51" y="7" width="106" height="39">
<path d="M51.5034 7.90277H156.422V45.125H51.5034V7.90277Z" fill="white"/>
</mask>
<g mask="url(#mask2_78_511)">
<path fill-rule="evenodd" clip-rule="evenodd" d="M105.572 37.7875C104.855 37.7222 104.704 37.5958 104.704 36.7542V24.5903L104.718 24.4514C104.804 23.6986 105.02 23.5708 105.698 23.1819H102.59L100.96 23.9597H102.619V37.2264C102.619 37.6569 102.535 37.7222 102.034 38.3653H105.877L106.682 37.8972C106.312 37.85 105.943 37.8306 105.573 37.7861M112.38 31.6208C112.79 31.4736 113.004 31.3431 113.004 31.0472C113.004 30.1944 112.034 29.2111 110.869 29.2111C110.005 29.2111 108.391 29.8736 108.391 32.1792C108.391 32.5403 108.433 32.925 108.457 33.3083L112.377 31.6194L112.38 31.6208ZM114.41 37.9847C114.172 38.1097 113.934 38.2625 113.699 38.3667C112.985 38.6903 112.251 38.7736 111.603 38.7736C110.917 38.7736 109.836 38.7292 108.737 37.9403C107.205 36.8736 106.539 35.0375 106.539 33.4361C106.539 30.1264 109.258 28.5056 111.477 28.5056C112.252 28.5056 113.05 28.7 113.7 29.1028C114.775 29.8069 115.055 30.7236 115.206 31.2167L110.141 33.2444L108.479 33.3736C109.018 36.0819 110.873 37.6625 112.922 37.6625C114.022 37.6625 114.82 37.2778 115.554 36.9167L114.411 37.9861L114.41 37.9847ZM116.489 28.6528V30.0611H116.315V28.6528H115.845V28.5069H116.961V28.6528H116.489ZM118.428 30.0611V28.6389H118.424L117.983 30.0611H117.847L117.404 28.6403H117.4V30.0625H117.241V28.5069H117.511L117.911 29.7653H117.914L118.309 28.5083H118.58V30.0639H118.426L118.428 30.0611Z" fill="white"/>
</g>
</g>
<defs>
<linearGradient id="paint0_linear_78_511" x1="400.501" y1="-527.48" x2="1017.43" y2="1554.25" gradientUnits="userSpaceOnUse">
<stop stop-color="#19A3B4"/>
<stop offset="0.34817" stop-color="#5BC3AF"/>
<stop offset="0.92234" stop-color="#C9F7A6"/>
<stop offset="1" stop-color="#D7FEA5"/>
</linearGradient>
<linearGradient id="paint1_linear_78_511" x1="-148.423" y1="-1073.07" x2="561.636" y2="1228.64" gradientUnits="userSpaceOnUse">
<stop stop-color="#FC227C"/>
<stop offset="1" stop-color="#FEEB7B"/>
</linearGradient>
<linearGradient id="paint2_linear_78_511" x1="470.518" y1="-441.659" x2="1511.72" y2="2260.26" gradientUnits="userSpaceOnUse">
<stop stop-color="#0E4DA0"/>
<stop offset="1" stop-color="#6BFED4"/>
</linearGradient>
<linearGradient id="paint3_linear_78_511" x1="2674.98" y1="277.312" x2="738.66" y2="2488.82" gradientUnits="userSpaceOnUse">
<stop stop-color="#FC472E"/>
<stop offset="0.00332" stop-color="#FC472E"/>
<stop offset="1" stop-color="#893CD8"/>
</linearGradient>
<clipPath id="clip0_78_511">
<rect width="168" height="50" fill="white"/>
</clipPath>
</defs>
</svg>
